<mxfile host="app.diagrams.net" modified="2022-04-14T21:26:47.558Z" agent="5.0 (Windows NT 10.0; Win64; x64) AppleWebKit/537.36 (KHTML, like Gecko) Chrome/98.0.4758.102 Safari/537.36" etag="dIVotr8qJ-Ftc70EaP84" version="17.4.3" type="github">
  <diagram id="W5_6d4oQ9xN3AwghPmHk" name="Page-1">
    <mxGraphModel dx="1865" dy="544" grid="1" gridSize="10" guides="1" tooltips="1" connect="1" arrows="1" fold="1" page="1" pageScale="1" pageWidth="827" pageHeight="1169" math="0" shadow="0">
      <root>
        <mxCell id="0" />
        <mxCell id="1" parent="0" />
        <mxCell id="zz2BSMKjJ74yFO-jffu2-1" value="Conceptual Model" style="rounded=0;whiteSpace=wrap;html=1;" vertex="1" parent="1">
          <mxGeometry width="140" height="30" as="geometry" />
        </mxCell>
        <mxCell id="zz2BSMKjJ74yFO-jffu2-3" value="Customer" style="swimlane;childLayout=stackLayout;horizontal=1;startSize=30;horizontalStack=0;rounded=1;fontSize=14;fontStyle=0;strokeWidth=2;resizeParent=0;resizeLast=1;shadow=0;dashed=0;align=center;" vertex="1" parent="1">
          <mxGeometry x="40" y="120" width="160" height="120" as="geometry" />
        </mxCell>
        <mxCell id="zz2BSMKjJ74yFO-jffu2-4" value="" style="edgeStyle=entityRelationEdgeStyle;fontSize=12;html=1;endArrow=ERmany;startArrow=ERmany;rounded=0;entryX=0.01;entryY=0.376;entryDx=0;entryDy=0;entryPerimeter=0;" edge="1" parent="zz2BSMKjJ74yFO-jffu2-3" target="zz2BSMKjJ74yFO-jffu2-8">
          <mxGeometry width="100" height="100" relative="1" as="geometry">
            <mxPoint x="160" y="60" as="sourcePoint" />
            <mxPoint x="260" y="-40" as="targetPoint" />
          </mxGeometry>
        </mxCell>
        <mxCell id="zz2BSMKjJ74yFO-jffu2-5" value="books" style="edgeLabel;html=1;align=center;verticalAlign=middle;resizable=0;points=[];" vertex="1" connectable="0" parent="zz2BSMKjJ74yFO-jffu2-4">
          <mxGeometry x="-0.0449" y="2" relative="1" as="geometry">
            <mxPoint as="offset" />
          </mxGeometry>
        </mxCell>
        <mxCell id="zz2BSMKjJ74yFO-jffu2-6" value="name&#xa;email&#xa;dateRegistered " style="align=left;strokeColor=none;fillColor=none;spacingLeft=4;fontSize=12;verticalAlign=top;resizable=0;rotatable=0;part=1;" vertex="1" parent="zz2BSMKjJ74yFO-jffu2-3">
          <mxGeometry y="30" width="160" height="90" as="geometry" />
        </mxCell>
        <mxCell id="zz2BSMKjJ74yFO-jffu2-7" value="Flight" style="swimlane;childLayout=stackLayout;horizontal=1;startSize=30;horizontalStack=0;rounded=1;fontSize=14;fontStyle=0;strokeWidth=2;resizeParent=0;resizeLast=1;shadow=0;dashed=0;align=center;" vertex="1" parent="1">
          <mxGeometry x="780" y="105" width="160" height="150" as="geometry" />
        </mxCell>
        <mxCell id="zz2BSMKjJ74yFO-jffu2-8" value="flightNumber&#xa;dateTimeDeparture&#xa;dateTimeArrival&#xa;distance&#xa;airlineName&#xa;airlineConfirmationNumber&#xa;" style="align=left;strokeColor=none;fillColor=none;spacingLeft=4;fontSize=12;verticalAlign=top;resizable=0;rotatable=0;part=1;" vertex="1" parent="zz2BSMKjJ74yFO-jffu2-7">
          <mxGeometry y="30" width="160" height="120" as="geometry" />
        </mxCell>
        <mxCell id="zz2BSMKjJ74yFO-jffu2-23" value="Conceptual Model" style="rounded=0;whiteSpace=wrap;html=1;" vertex="1" parent="1">
          <mxGeometry y="560" width="140" height="30" as="geometry" />
        </mxCell>
        <mxCell id="zz2BSMKjJ74yFO-jffu2-24" value="Passenger" style="swimlane;childLayout=stackLayout;horizontal=1;startSize=30;horizontalStack=0;rounded=1;fontSize=14;fontStyle=0;strokeWidth=2;resizeParent=0;resizeLast=1;shadow=0;dashed=0;align=center;" vertex="1" parent="1">
          <mxGeometry x="10" y="645" width="160" height="120" as="geometry" />
        </mxCell>
        <mxCell id="zz2BSMKjJ74yFO-jffu2-27" value="Name&#xa; " style="align=left;strokeColor=none;fillColor=none;spacingLeft=4;fontSize=12;verticalAlign=top;resizable=0;rotatable=0;part=1;" vertex="1" parent="zz2BSMKjJ74yFO-jffu2-24">
          <mxGeometry y="30" width="160" height="90" as="geometry" />
        </mxCell>
        <mxCell id="zz2BSMKjJ74yFO-jffu2-28" value="Flight" style="swimlane;childLayout=stackLayout;horizontal=1;startSize=30;horizontalStack=0;rounded=1;fontSize=14;fontStyle=0;strokeWidth=2;resizeParent=0;resizeLast=1;shadow=0;dashed=0;align=center;" vertex="1" parent="1">
          <mxGeometry x="690" y="615" width="160" height="180" as="geometry" />
        </mxCell>
        <mxCell id="zz2BSMKjJ74yFO-jffu2-29" value="Number&#xa;DepartureDateTime&#xa;ArrivalDateTime&#xa;Duration&#xa;Distance&#xa;Airline" style="align=left;strokeColor=none;fillColor=none;spacingLeft=4;fontSize=12;verticalAlign=top;resizable=0;rotatable=0;part=1;" vertex="1" parent="zz2BSMKjJ74yFO-jffu2-28">
          <mxGeometry y="30" width="160" height="150" as="geometry" />
        </mxCell>
        <mxCell id="zz2BSMKjJ74yFO-jffu2-30" value="" style="edgeStyle=entityRelationEdgeStyle;fontSize=12;html=1;endArrow=ERmany;startArrow=ERmany;rounded=0;exitX=1;exitY=0.5;exitDx=0;exitDy=0;" edge="1" parent="1" source="zz2BSMKjJ74yFO-jffu2-27" target="zz2BSMKjJ74yFO-jffu2-29">
          <mxGeometry width="100" height="100" relative="1" as="geometry">
            <mxPoint x="160" y="740" as="sourcePoint" />
            <mxPoint x="260" y="640" as="targetPoint" />
          </mxGeometry>
        </mxCell>
        <mxCell id="zz2BSMKjJ74yFO-jffu2-31" value="Books" style="edgeLabel;html=1;align=center;verticalAlign=middle;resizable=0;points=[];" vertex="1" connectable="0" parent="zz2BSMKjJ74yFO-jffu2-30">
          <mxGeometry x="0.0558" y="1" relative="1" as="geometry">
            <mxPoint as="offset" />
          </mxGeometry>
        </mxCell>
        <mxCell id="zz2BSMKjJ74yFO-jffu2-32" value="Airport" style="swimlane;childLayout=stackLayout;horizontal=1;startSize=30;horizontalStack=0;rounded=1;fontSize=14;fontStyle=0;strokeWidth=2;resizeParent=0;resizeLast=1;shadow=0;dashed=0;align=center;" vertex="1" parent="1">
          <mxGeometry x="360" y="780" width="160" height="120" as="geometry" />
        </mxCell>
        <mxCell id="zz2BSMKjJ74yFO-jffu2-33" value="IATACode&#xa;Name&#xa;City&#xa;State" style="align=left;strokeColor=none;fillColor=none;spacingLeft=4;fontSize=12;verticalAlign=top;resizable=0;rotatable=0;part=1;" vertex="1" parent="zz2BSMKjJ74yFO-jffu2-32">
          <mxGeometry y="30" width="160" height="90" as="geometry" />
        </mxCell>
        <mxCell id="zz2BSMKjJ74yFO-jffu2-34" value="" style="fontSize=12;html=1;endArrow=ERmany;startArrow=ERmany;rounded=0;exitX=0.5;exitY=0;exitDx=0;exitDy=0;edgeStyle=orthogonalEdgeStyle;entryX=0;entryY=0.75;entryDx=0;entryDy=0;" edge="1" parent="1" source="zz2BSMKjJ74yFO-jffu2-32" target="zz2BSMKjJ74yFO-jffu2-29">
          <mxGeometry width="100" height="100" relative="1" as="geometry">
            <mxPoint x="785" y="950" as="sourcePoint" />
            <mxPoint x="775" y="830" as="targetPoint" />
          </mxGeometry>
        </mxCell>
        <mxCell id="zz2BSMKjJ74yFO-jffu2-35" value="Departs/Arrives at" style="edgeLabel;html=1;align=center;verticalAlign=middle;resizable=0;points=[];" vertex="1" connectable="0" parent="zz2BSMKjJ74yFO-jffu2-34">
          <mxGeometry x="0.0486" y="-2" relative="1" as="geometry">
            <mxPoint as="offset" />
          </mxGeometry>
        </mxCell>
        <mxCell id="zz2BSMKjJ74yFO-jffu2-36" value="Ticket" style="swimlane;childLayout=stackLayout;horizontal=1;startSize=30;horizontalStack=0;rounded=1;fontSize=14;fontStyle=0;strokeWidth=2;resizeParent=0;resizeLast=1;shadow=0;dashed=0;align=center;" vertex="1" parent="1">
          <mxGeometry x="360" y="560" width="160" height="120" as="geometry" />
        </mxCell>
        <mxCell id="zz2BSMKjJ74yFO-jffu2-37" value="TicketNumber&#xa;Price&#xa;FlightClass&#xa;ConfirmationNumber" style="align=left;strokeColor=none;fillColor=none;spacingLeft=4;fontSize=12;verticalAlign=top;resizable=0;rotatable=0;part=1;" vertex="1" parent="zz2BSMKjJ74yFO-jffu2-36">
          <mxGeometry y="30" width="160" height="90" as="geometry" />
        </mxCell>
        <mxCell id="zz2BSMKjJ74yFO-jffu2-39" value="" style="edgeStyle=entityRelationEdgeStyle;fontSize=12;html=1;endArrow=ERmany;startArrow=ERmany;rounded=0;exitX=1;exitY=0.333;exitDx=0;exitDy=0;exitPerimeter=0;" edge="1" parent="1" source="zz2BSMKjJ74yFO-jffu2-27" target="zz2BSMKjJ74yFO-jffu2-37">
          <mxGeometry width="100" height="100" relative="1" as="geometry">
            <mxPoint x="100" y="880" as="sourcePoint" />
            <mxPoint x="200" y="780" as="targetPoint" />
          </mxGeometry>
        </mxCell>
        <mxCell id="zz2BSMKjJ74yFO-jffu2-40" value="purchases" style="edgeLabel;html=1;align=center;verticalAlign=middle;resizable=0;points=[];" vertex="1" connectable="0" parent="zz2BSMKjJ74yFO-jffu2-39">
          <mxGeometry x="-0.0329" y="-3" relative="1" as="geometry">
            <mxPoint as="offset" />
          </mxGeometry>
        </mxCell>
        <mxCell id="zz2BSMKjJ74yFO-jffu2-41" value="" style="edgeStyle=entityRelationEdgeStyle;fontSize=12;html=1;endArrow=ERmany;startArrow=ERmany;rounded=0;entryX=0;entryY=0.25;entryDx=0;entryDy=0;exitX=1.005;exitY=0.404;exitDx=0;exitDy=0;exitPerimeter=0;" edge="1" parent="1" source="zz2BSMKjJ74yFO-jffu2-37" target="zz2BSMKjJ74yFO-jffu2-29">
          <mxGeometry width="100" height="100" relative="1" as="geometry">
            <mxPoint x="580" y="700" as="sourcePoint" />
            <mxPoint x="700" y="730" as="targetPoint" />
          </mxGeometry>
        </mxCell>
        <mxCell id="zz2BSMKjJ74yFO-jffu2-42" value="issued for" style="edgeLabel;html=1;align=center;verticalAlign=middle;resizable=0;points=[];" vertex="1" connectable="0" parent="zz2BSMKjJ74yFO-jffu2-41">
          <mxGeometry x="-0.1787" relative="1" as="geometry">
            <mxPoint as="offset" />
          </mxGeometry>
        </mxCell>
        <mxCell id="zz2BSMKjJ74yFO-jffu2-46" value="Ticket" style="swimlane;childLayout=stackLayout;horizontal=1;startSize=30;horizontalStack=0;rounded=1;fontSize=14;fontStyle=0;strokeWidth=2;resizeParent=0;resizeLast=1;shadow=0;dashed=0;align=center;" vertex="1" parent="1">
          <mxGeometry x="390" y="20" width="160" height="140" as="geometry" />
        </mxCell>
        <mxCell id="zz2BSMKjJ74yFO-jffu2-47" value="ticketID&#xa;classType&#xa;price&#xa;&#xa;ticketType&#xa;tripType&#xa;" style="align=left;strokeColor=none;fillColor=none;spacingLeft=4;fontSize=12;verticalAlign=top;resizable=0;rotatable=0;part=1;" vertex="1" parent="zz2BSMKjJ74yFO-jffu2-46">
          <mxGeometry y="30" width="160" height="110" as="geometry" />
        </mxCell>
        <mxCell id="zz2BSMKjJ74yFO-jffu2-48" value="" style="edgeStyle=entityRelationEdgeStyle;fontSize=12;html=1;endArrow=ERmany;startArrow=ERmany;rounded=0;exitX=1.007;exitY=0.084;exitDx=0;exitDy=0;exitPerimeter=0;entryX=0;entryY=0.5;entryDx=0;entryDy=0;" edge="1" parent="1" source="zz2BSMKjJ74yFO-jffu2-6" target="zz2BSMKjJ74yFO-jffu2-46">
          <mxGeometry width="100" height="100" relative="1" as="geometry">
            <mxPoint x="260" y="150" as="sourcePoint" />
            <mxPoint x="360" y="50" as="targetPoint" />
          </mxGeometry>
        </mxCell>
        <mxCell id="zz2BSMKjJ74yFO-jffu2-52" value="books" style="edgeLabel;html=1;align=center;verticalAlign=middle;resizable=0;points=[];" vertex="1" connectable="0" parent="zz2BSMKjJ74yFO-jffu2-48">
          <mxGeometry x="-0.0464" relative="1" as="geometry">
            <mxPoint as="offset" />
          </mxGeometry>
        </mxCell>
        <mxCell id="zz2BSMKjJ74yFO-jffu2-49" value="" style="edgeStyle=entityRelationEdgeStyle;fontSize=12;html=1;endArrow=ERmany;startArrow=ERmany;rounded=0;exitX=1;exitY=0.25;exitDx=0;exitDy=0;entryX=0.003;entryY=0.159;entryDx=0;entryDy=0;entryPerimeter=0;" edge="1" parent="1" source="zz2BSMKjJ74yFO-jffu2-47" target="zz2BSMKjJ74yFO-jffu2-8">
          <mxGeometry width="100" height="100" relative="1" as="geometry">
            <mxPoint x="630" y="140" as="sourcePoint" />
            <mxPoint x="730" y="40" as="targetPoint" />
          </mxGeometry>
        </mxCell>
        <mxCell id="zz2BSMKjJ74yFO-jffu2-53" value="issue for" style="edgeLabel;html=1;align=center;verticalAlign=middle;resizable=0;points=[];" vertex="1" connectable="0" parent="zz2BSMKjJ74yFO-jffu2-49">
          <mxGeometry x="0.1498" y="-1" relative="1" as="geometry">
            <mxPoint as="offset" />
          </mxGeometry>
        </mxCell>
        <mxCell id="zz2BSMKjJ74yFO-jffu2-50" value="Airport" style="swimlane;childLayout=stackLayout;horizontal=1;startSize=30;horizontalStack=0;rounded=1;fontSize=14;fontStyle=0;strokeWidth=2;resizeParent=0;resizeLast=1;shadow=0;dashed=0;align=center;" vertex="1" parent="1">
          <mxGeometry x="390" y="200" width="160" height="190" as="geometry" />
        </mxCell>
        <mxCell id="zz2BSMKjJ74yFO-jffu2-51" value="shortAirportDeparture&#xa;airportDeparture&#xa;countyDeparture&#xa;stateDeparture" style="align=left;strokeColor=none;fillColor=none;spacingLeft=4;fontSize=12;verticalAlign=top;resizable=0;rotatable=0;part=1;" vertex="1" parent="zz2BSMKjJ74yFO-jffu2-50">
          <mxGeometry y="30" width="160" height="160" as="geometry" />
        </mxCell>
        <mxCell id="zz2BSMKjJ74yFO-jffu2-54" value="" style="edgeStyle=entityRelationEdgeStyle;fontSize=12;html=1;endArrow=ERmany;startArrow=ERmany;rounded=0;exitX=1;exitY=0.5;exitDx=0;exitDy=0;entryX=-0.006;entryY=0.596;entryDx=0;entryDy=0;entryPerimeter=0;" edge="1" parent="1" source="zz2BSMKjJ74yFO-jffu2-51" target="zz2BSMKjJ74yFO-jffu2-8">
          <mxGeometry width="100" height="100" relative="1" as="geometry">
            <mxPoint x="650" y="360" as="sourcePoint" />
            <mxPoint x="780" y="240" as="targetPoint" />
          </mxGeometry>
        </mxCell>
        <mxCell id="zz2BSMKjJ74yFO-jffu2-55" value="departs/arrives at" style="edgeLabel;html=1;align=center;verticalAlign=middle;resizable=0;points=[];" vertex="1" connectable="0" parent="zz2BSMKjJ74yFO-jffu2-54">
          <mxGeometry x="0.0488" y="-1" relative="1" as="geometry">
            <mxPoint as="offset" />
          </mxGeometry>
        </mxCell>
        <mxCell id="zz2BSMKjJ74yFO-jffu2-71" value="Passenger" style="swimlane;childLayout=stackLayout;horizontal=1;startSize=30;horizontalStack=0;rounded=1;fontSize=14;fontStyle=0;strokeWidth=2;resizeParent=0;resizeLast=1;shadow=0;dashed=0;align=center;" vertex="1" parent="1">
          <mxGeometry y="1100" width="160" height="120" as="geometry" />
        </mxCell>
        <mxCell id="zz2BSMKjJ74yFO-jffu2-72" value="" style="edgeStyle=entityRelationEdgeStyle;fontSize=12;html=1;endArrow=ERmany;startArrow=ERmany;rounded=0;entryX=0.01;entryY=0.376;entryDx=0;entryDy=0;entryPerimeter=0;" edge="1" parent="zz2BSMKjJ74yFO-jffu2-71" target="zz2BSMKjJ74yFO-jffu2-76">
          <mxGeometry width="100" height="100" relative="1" as="geometry">
            <mxPoint x="160" y="60" as="sourcePoint" />
            <mxPoint x="260" y="-40" as="targetPoint" />
          </mxGeometry>
        </mxCell>
        <mxCell id="zz2BSMKjJ74yFO-jffu2-73" value="books" style="edgeLabel;html=1;align=center;verticalAlign=middle;resizable=0;points=[];" vertex="1" connectable="0" parent="zz2BSMKjJ74yFO-jffu2-72">
          <mxGeometry x="-0.0449" y="2" relative="1" as="geometry">
            <mxPoint as="offset" />
          </mxGeometry>
        </mxCell>
        <mxCell id="zz2BSMKjJ74yFO-jffu2-74" value="firstName(string)&#xa;lastName(string)" style="align=left;strokeColor=none;fillColor=none;spacingLeft=4;fontSize=12;verticalAlign=top;resizable=0;rotatable=0;part=1;" vertex="1" parent="zz2BSMKjJ74yFO-jffu2-71">
          <mxGeometry y="30" width="160" height="90" as="geometry" />
        </mxCell>
        <mxCell id="zz2BSMKjJ74yFO-jffu2-75" value="Flight" style="swimlane;childLayout=stackLayout;horizontal=1;startSize=30;horizontalStack=0;rounded=1;fontSize=14;fontStyle=0;strokeWidth=2;resizeParent=0;resizeLast=1;shadow=0;dashed=0;align=center;" vertex="1" parent="1">
          <mxGeometry x="820" y="1087.5" width="180" height="145" as="geometry" />
        </mxCell>
        <mxCell id="zz2BSMKjJ74yFO-jffu2-76" value="Number(string)&#xa;DepartureDateTime(dateTime)&#xa;ArrivalDateTime(dateTime)&#xa;DurationInMinutes(integer)&#xa;DistanceInMiles(integer)&#xa;" style="align=left;strokeColor=none;fillColor=none;spacingLeft=4;fontSize=12;verticalAlign=top;resizable=0;rotatable=0;part=1;" vertex="1" parent="zz2BSMKjJ74yFO-jffu2-75">
          <mxGeometry y="30" width="180" height="115" as="geometry" />
        </mxCell>
        <mxCell id="zz2BSMKjJ74yFO-jffu2-77" value="Ticket" style="swimlane;childLayout=stackLayout;horizontal=1;startSize=30;horizontalStack=0;rounded=1;fontSize=14;fontStyle=0;strokeWidth=2;resizeParent=0;resizeLast=1;shadow=0;dashed=0;align=center;" vertex="1" parent="1">
          <mxGeometry x="520" y="980" width="190" height="140" as="geometry" />
        </mxCell>
        <mxCell id="zz2BSMKjJ74yFO-jffu2-78" value="ticketNumber(string)&#xa;price(float)&#xa;airlineConfirmationNumber(string)&#xa;" style="align=left;strokeColor=none;fillColor=none;spacingLeft=4;fontSize=12;verticalAlign=top;resizable=0;rotatable=0;part=1;" vertex="1" parent="zz2BSMKjJ74yFO-jffu2-77">
          <mxGeometry y="30" width="190" height="110" as="geometry" />
        </mxCell>
        <mxCell id="zz2BSMKjJ74yFO-jffu2-79" value="" style="edgeStyle=entityRelationEdgeStyle;fontSize=12;html=1;endArrow=ERmany;startArrow=ERone;rounded=0;exitX=1.007;exitY=0.084;exitDx=0;exitDy=0;exitPerimeter=0;entryX=0;entryY=0.5;entryDx=0;entryDy=0;startFill=0;" edge="1" parent="1" source="zz2BSMKjJ74yFO-jffu2-74" target="zz2BSMKjJ74yFO-jffu2-78">
          <mxGeometry width="100" height="100" relative="1" as="geometry">
            <mxPoint x="220" y="1130" as="sourcePoint" />
            <mxPoint x="320" y="1030" as="targetPoint" />
          </mxGeometry>
        </mxCell>
        <mxCell id="zz2BSMKjJ74yFO-jffu2-80" value="purchases" style="edgeLabel;html=1;align=center;verticalAlign=middle;resizable=0;points=[];" vertex="1" connectable="0" parent="zz2BSMKjJ74yFO-jffu2-79">
          <mxGeometry x="-0.0464" relative="1" as="geometry">
            <mxPoint as="offset" />
          </mxGeometry>
        </mxCell>
        <mxCell id="zz2BSMKjJ74yFO-jffu2-81" value="" style="edgeStyle=entityRelationEdgeStyle;fontSize=12;html=1;endArrow=ERone;startArrow=ERmany;rounded=0;exitX=1;exitY=0.25;exitDx=0;exitDy=0;entryX=0.003;entryY=0.159;entryDx=0;entryDy=0;entryPerimeter=0;endFill=0;" edge="1" parent="1" source="zz2BSMKjJ74yFO-jffu2-78" target="zz2BSMKjJ74yFO-jffu2-76">
          <mxGeometry width="100" height="100" relative="1" as="geometry">
            <mxPoint x="590" y="1120" as="sourcePoint" />
            <mxPoint x="690" y="1020" as="targetPoint" />
          </mxGeometry>
        </mxCell>
        <mxCell id="zz2BSMKjJ74yFO-jffu2-82" value="issue for" style="edgeLabel;html=1;align=center;verticalAlign=middle;resizable=0;points=[];" vertex="1" connectable="0" parent="zz2BSMKjJ74yFO-jffu2-81">
          <mxGeometry x="0.1498" y="-1" relative="1" as="geometry">
            <mxPoint as="offset" />
          </mxGeometry>
        </mxCell>
        <mxCell id="zz2BSMKjJ74yFO-jffu2-83" value="Airport" style="swimlane;childLayout=stackLayout;horizontal=1;startSize=30;horizontalStack=0;rounded=1;fontSize=14;fontStyle=0;strokeWidth=2;resizeParent=0;resizeLast=1;shadow=0;dashed=0;align=center;" vertex="1" parent="1">
          <mxGeometry x="240" y="1270" width="160" height="140" as="geometry" />
        </mxCell>
        <mxCell id="zz2BSMKjJ74yFO-jffu2-84" value="IATACode(string)&#xa;Name(string)&#xa;County(String)&#xa;State(String)" style="align=left;strokeColor=none;fillColor=none;spacingLeft=4;fontSize=12;verticalAlign=top;resizable=0;rotatable=0;part=1;" vertex="1" parent="zz2BSMKjJ74yFO-jffu2-83">
          <mxGeometry y="30" width="160" height="110" as="geometry" />
        </mxCell>
        <mxCell id="zz2BSMKjJ74yFO-jffu2-87" value="Logical Model" style="rounded=0;whiteSpace=wrap;html=1;" vertex="1" parent="1">
          <mxGeometry y="960" width="140" height="30" as="geometry" />
        </mxCell>
        <mxCell id="zz2BSMKjJ74yFO-jffu2-88" value="function" style="swimlane;childLayout=stackLayout;horizontal=1;startSize=30;horizontalStack=0;rounded=1;fontSize=14;fontStyle=0;strokeWidth=2;resizeParent=0;resizeLast=1;shadow=0;dashed=0;align=center;" vertex="1" parent="1">
          <mxGeometry x="570" y="1280" width="160" height="120" as="geometry" />
        </mxCell>
        <mxCell id="zz2BSMKjJ74yFO-jffu2-89" value="typeID(int)&#xa;type(string)" style="align=left;strokeColor=none;fillColor=none;spacingLeft=4;fontSize=12;verticalAlign=top;resizable=0;rotatable=0;part=1;" vertex="1" parent="zz2BSMKjJ74yFO-jffu2-88">
          <mxGeometry y="30" width="160" height="90" as="geometry" />
        </mxCell>
        <mxCell id="zz2BSMKjJ74yFO-jffu2-90" value="" style="edgeStyle=entityRelationEdgeStyle;fontSize=12;html=1;endArrow=ERoneToMany;rounded=0;exitX=1;exitY=0.25;exitDx=0;exitDy=0;" edge="1" parent="1" source="zz2BSMKjJ74yFO-jffu2-89" target="zz2BSMKjJ74yFO-jffu2-76">
          <mxGeometry width="100" height="100" relative="1" as="geometry">
            <mxPoint x="850" y="1360" as="sourcePoint" />
            <mxPoint x="950" y="1260" as="targetPoint" />
          </mxGeometry>
        </mxCell>
        <mxCell id="zz2BSMKjJ74yFO-jffu2-91" value="" style="edgeStyle=entityRelationEdgeStyle;fontSize=12;html=1;endArrow=ERoneToMany;rounded=0;entryX=1;entryY=0.5;entryDx=0;entryDy=0;exitX=0;exitY=0.5;exitDx=0;exitDy=0;" edge="1" parent="1" source="zz2BSMKjJ74yFO-jffu2-89" target="zz2BSMKjJ74yFO-jffu2-84">
          <mxGeometry width="100" height="100" relative="1" as="geometry">
            <mxPoint x="560" y="1540" as="sourcePoint" />
            <mxPoint x="660" y="1440" as="targetPoint" />
          </mxGeometry>
        </mxCell>
        <mxCell id="zz2BSMKjJ74yFO-jffu2-93" value="Airline" style="swimlane;childLayout=stackLayout;horizontal=1;startSize=30;horizontalStack=0;rounded=1;fontSize=14;fontStyle=0;strokeWidth=2;resizeParent=0;resizeLast=1;shadow=0;dashed=0;align=center;" vertex="1" parent="1">
          <mxGeometry x="830" y="1320" width="160" height="120" as="geometry" />
        </mxCell>
        <mxCell id="zz2BSMKjJ74yFO-jffu2-94" value="AirlineID(int)&#xa;Name(string)" style="align=left;strokeColor=none;fillColor=none;spacingLeft=4;fontSize=12;verticalAlign=top;resizable=0;rotatable=0;part=1;" vertex="1" parent="zz2BSMKjJ74yFO-jffu2-93">
          <mxGeometry y="30" width="160" height="90" as="geometry" />
        </mxCell>
        <mxCell id="zz2BSMKjJ74yFO-jffu2-95" value="" style="fontSize=12;html=1;endArrow=ERone;rounded=0;entryX=0.5;entryY=0;entryDx=0;entryDy=0;startArrow=ERoneToMany;startFill=0;endFill=0;" edge="1" parent="1" target="zz2BSMKjJ74yFO-jffu2-93">
          <mxGeometry width="100" height="100" relative="1" as="geometry">
            <mxPoint x="910" y="1233" as="sourcePoint" />
            <mxPoint x="1010" y="1220" as="targetPoint" />
          </mxGeometry>
        </mxCell>
        <mxCell id="zz2BSMKjJ74yFO-jffu2-96" value="FlightClass" style="swimlane;childLayout=stackLayout;horizontal=1;startSize=30;horizontalStack=0;rounded=1;fontSize=14;fontStyle=0;strokeWidth=2;resizeParent=0;resizeLast=1;shadow=0;dashed=0;align=center;" vertex="1" parent="1">
          <mxGeometry x="240" y="950" width="160" height="120" as="geometry" />
        </mxCell>
        <mxCell id="zz2BSMKjJ74yFO-jffu2-97" value="Name(String)" style="align=left;strokeColor=none;fillColor=none;spacingLeft=4;fontSize=12;verticalAlign=top;resizable=0;rotatable=0;part=1;" vertex="1" parent="zz2BSMKjJ74yFO-jffu2-96">
          <mxGeometry y="30" width="160" height="90" as="geometry" />
        </mxCell>
        <mxCell id="zz2BSMKjJ74yFO-jffu2-98" value="" style="edgeStyle=entityRelationEdgeStyle;fontSize=12;html=1;endArrow=ERoneToMany;rounded=0;exitX=1;exitY=0.5;exitDx=0;exitDy=0;entryX=0;entryY=0.25;entryDx=0;entryDy=0;" edge="1" parent="1" source="zz2BSMKjJ74yFO-jffu2-97" target="zz2BSMKjJ74yFO-jffu2-78">
          <mxGeometry width="100" height="100" relative="1" as="geometry">
            <mxPoint x="430" y="1090" as="sourcePoint" />
            <mxPoint x="530" y="990" as="targetPoint" />
          </mxGeometry>
        </mxCell>
        <mxCell id="zz2BSMKjJ74yFO-jffu2-99" value="Passenger" style="swimlane;childLayout=stackLayout;horizontal=1;startSize=30;horizontalStack=0;rounded=1;fontSize=14;fontStyle=0;strokeWidth=2;resizeParent=0;resizeLast=1;shadow=0;dashed=0;align=center;" vertex="1" parent="1">
          <mxGeometry x="-30" y="1630" width="160" height="120" as="geometry" />
        </mxCell>
        <mxCell id="zz2BSMKjJ74yFO-jffu2-100" value="" style="edgeStyle=entityRelationEdgeStyle;fontSize=12;html=1;endArrow=ERmany;startArrow=ERmany;rounded=0;entryX=0.01;entryY=0.376;entryDx=0;entryDy=0;entryPerimeter=0;" edge="1" parent="zz2BSMKjJ74yFO-jffu2-99" target="zz2BSMKjJ74yFO-jffu2-104">
          <mxGeometry width="100" height="100" relative="1" as="geometry">
            <mxPoint x="160" y="60" as="sourcePoint" />
            <mxPoint x="260" y="-40" as="targetPoint" />
          </mxGeometry>
        </mxCell>
        <mxCell id="zz2BSMKjJ74yFO-jffu2-101" value="books" style="edgeLabel;html=1;align=center;verticalAlign=middle;resizable=0;points=[];" vertex="1" connectable="0" parent="zz2BSMKjJ74yFO-jffu2-100">
          <mxGeometry x="-0.0449" y="2" relative="1" as="geometry">
            <mxPoint as="offset" />
          </mxGeometry>
        </mxCell>
        <mxCell id="zz2BSMKjJ74yFO-jffu2-102" value="firstName(string)&#xa;lastName(string)" style="align=left;strokeColor=none;fillColor=none;spacingLeft=4;fontSize=12;verticalAlign=top;resizable=0;rotatable=0;part=1;" vertex="1" parent="zz2BSMKjJ74yFO-jffu2-99">
          <mxGeometry y="30" width="160" height="90" as="geometry" />
        </mxCell>
        <mxCell id="zz2BSMKjJ74yFO-jffu2-103" value="Flight" style="swimlane;childLayout=stackLayout;horizontal=1;startSize=30;horizontalStack=0;rounded=1;fontSize=14;fontStyle=0;strokeWidth=2;resizeParent=0;resizeLast=1;shadow=0;dashed=0;align=center;" vertex="1" parent="1">
          <mxGeometry x="790" y="1617.5" width="180" height="145" as="geometry" />
        </mxCell>
        <mxCell id="zz2BSMKjJ74yFO-jffu2-104" value="Number(string)&#xa;DepartureDateTime(dateTime)&#xa;ArrivalDateTime(dateTime)&#xa;DurationInMinutes(integer)&#xa;DistanceInMiles(integer)&#xa;DepartureAirportID(int)&#xa;ArrivalAirporID(int)" style="align=left;strokeColor=none;fillColor=none;spacingLeft=4;fontSize=12;verticalAlign=top;resizable=0;rotatable=0;part=1;" vertex="1" parent="zz2BSMKjJ74yFO-jffu2-103">
          <mxGeometry y="30" width="180" height="115" as="geometry" />
        </mxCell>
        <mxCell id="zz2BSMKjJ74yFO-jffu2-105" value="Ticket" style="swimlane;childLayout=stackLayout;horizontal=1;startSize=30;horizontalStack=0;rounded=1;fontSize=14;fontStyle=0;strokeWidth=2;resizeParent=0;resizeLast=1;shadow=0;dashed=0;align=center;" vertex="1" parent="1">
          <mxGeometry x="490" y="1510" width="190" height="140" as="geometry" />
        </mxCell>
        <mxCell id="zz2BSMKjJ74yFO-jffu2-106" value="ticketNumber(string)&#xa;price(float)&#xa;airlineConfirmationNumber(string)&#xa;" style="align=left;strokeColor=none;fillColor=none;spacingLeft=4;fontSize=12;verticalAlign=top;resizable=0;rotatable=0;part=1;" vertex="1" parent="zz2BSMKjJ74yFO-jffu2-105">
          <mxGeometry y="30" width="190" height="110" as="geometry" />
        </mxCell>
        <mxCell id="zz2BSMKjJ74yFO-jffu2-107" value="" style="edgeStyle=entityRelationEdgeStyle;fontSize=12;html=1;endArrow=ERmany;startArrow=ERone;rounded=0;exitX=1.007;exitY=0.084;exitDx=0;exitDy=0;exitPerimeter=0;entryX=0;entryY=0.5;entryDx=0;entryDy=0;startFill=0;" edge="1" parent="1" source="zz2BSMKjJ74yFO-jffu2-102" target="zz2BSMKjJ74yFO-jffu2-106">
          <mxGeometry width="100" height="100" relative="1" as="geometry">
            <mxPoint x="190" y="1660" as="sourcePoint" />
            <mxPoint x="290" y="1560" as="targetPoint" />
          </mxGeometry>
        </mxCell>
        <mxCell id="zz2BSMKjJ74yFO-jffu2-108" value="purchases" style="edgeLabel;html=1;align=center;verticalAlign=middle;resizable=0;points=[];" vertex="1" connectable="0" parent="zz2BSMKjJ74yFO-jffu2-107">
          <mxGeometry x="-0.0464" relative="1" as="geometry">
            <mxPoint as="offset" />
          </mxGeometry>
        </mxCell>
        <mxCell id="zz2BSMKjJ74yFO-jffu2-109" value="" style="edgeStyle=entityRelationEdgeStyle;fontSize=12;html=1;endArrow=ERone;startArrow=ERmany;rounded=0;exitX=1;exitY=0.25;exitDx=0;exitDy=0;entryX=0.003;entryY=0.159;entryDx=0;entryDy=0;entryPerimeter=0;endFill=0;" edge="1" parent="1" source="zz2BSMKjJ74yFO-jffu2-106" target="zz2BSMKjJ74yFO-jffu2-104">
          <mxGeometry width="100" height="100" relative="1" as="geometry">
            <mxPoint x="560" y="1650" as="sourcePoint" />
            <mxPoint x="660" y="1550" as="targetPoint" />
          </mxGeometry>
        </mxCell>
        <mxCell id="zz2BSMKjJ74yFO-jffu2-110" value="issue for" style="edgeLabel;html=1;align=center;verticalAlign=middle;resizable=0;points=[];" vertex="1" connectable="0" parent="zz2BSMKjJ74yFO-jffu2-109">
          <mxGeometry x="0.1498" y="-1" relative="1" as="geometry">
            <mxPoint as="offset" />
          </mxGeometry>
        </mxCell>
        <mxCell id="zz2BSMKjJ74yFO-jffu2-111" value="Airport" style="swimlane;childLayout=stackLayout;horizontal=1;startSize=30;horizontalStack=0;rounded=1;fontSize=14;fontStyle=0;strokeWidth=2;resizeParent=0;resizeLast=1;shadow=0;dashed=0;align=center;" vertex="1" parent="1">
          <mxGeometry x="480" y="1770" width="160" height="140" as="geometry" />
        </mxCell>
        <mxCell id="zz2BSMKjJ74yFO-jffu2-112" value="IATACode(string)&#xa;Name(string)&#xa;County(String)&#xa;State(String)" style="align=left;strokeColor=none;fillColor=none;spacingLeft=4;fontSize=12;verticalAlign=top;resizable=0;rotatable=0;part=1;" vertex="1" parent="zz2BSMKjJ74yFO-jffu2-111">
          <mxGeometry y="30" width="160" height="110" as="geometry" />
        </mxCell>
        <mxCell id="zz2BSMKjJ74yFO-jffu2-113" value="Logical Model" style="rounded=0;whiteSpace=wrap;html=1;" vertex="1" parent="1">
          <mxGeometry x="-30" y="1490" width="140" height="30" as="geometry" />
        </mxCell>
        <mxCell id="zz2BSMKjJ74yFO-jffu2-118" value="Airline" style="swimlane;childLayout=stackLayout;horizontal=1;startSize=30;horizontalStack=0;rounded=1;fontSize=14;fontStyle=0;strokeWidth=2;resizeParent=0;resizeLast=1;shadow=0;dashed=0;align=center;" vertex="1" parent="1">
          <mxGeometry x="800" y="1850" width="160" height="120" as="geometry" />
        </mxCell>
        <mxCell id="zz2BSMKjJ74yFO-jffu2-119" value="AirlineID(int)&#xa;Name(string)" style="align=left;strokeColor=none;fillColor=none;spacingLeft=4;fontSize=12;verticalAlign=top;resizable=0;rotatable=0;part=1;" vertex="1" parent="zz2BSMKjJ74yFO-jffu2-118">
          <mxGeometry y="30" width="160" height="90" as="geometry" />
        </mxCell>
        <mxCell id="zz2BSMKjJ74yFO-jffu2-120" value="" style="fontSize=12;html=1;endArrow=ERone;rounded=0;entryX=0.5;entryY=0;entryDx=0;entryDy=0;startArrow=ERoneToMany;startFill=0;endFill=0;" edge="1" parent="1" target="zz2BSMKjJ74yFO-jffu2-118">
          <mxGeometry width="100" height="100" relative="1" as="geometry">
            <mxPoint x="880" y="1763" as="sourcePoint" />
            <mxPoint x="980" y="1750" as="targetPoint" />
          </mxGeometry>
        </mxCell>
        <mxCell id="zz2BSMKjJ74yFO-jffu2-121" value="FlightClass" style="swimlane;childLayout=stackLayout;horizontal=1;startSize=30;horizontalStack=0;rounded=1;fontSize=14;fontStyle=0;strokeWidth=2;resizeParent=0;resizeLast=1;shadow=0;dashed=0;align=center;" vertex="1" parent="1">
          <mxGeometry x="210" y="1480" width="160" height="120" as="geometry" />
        </mxCell>
        <mxCell id="zz2BSMKjJ74yFO-jffu2-122" value="Name(String)" style="align=left;strokeColor=none;fillColor=none;spacingLeft=4;fontSize=12;verticalAlign=top;resizable=0;rotatable=0;part=1;" vertex="1" parent="zz2BSMKjJ74yFO-jffu2-121">
          <mxGeometry y="30" width="160" height="90" as="geometry" />
        </mxCell>
        <mxCell id="zz2BSMKjJ74yFO-jffu2-123" value="" style="edgeStyle=entityRelationEdgeStyle;fontSize=12;html=1;endArrow=ERoneToMany;rounded=0;exitX=1;exitY=0.5;exitDx=0;exitDy=0;entryX=0;entryY=0.25;entryDx=0;entryDy=0;" edge="1" parent="1" source="zz2BSMKjJ74yFO-jffu2-122" target="zz2BSMKjJ74yFO-jffu2-106">
          <mxGeometry width="100" height="100" relative="1" as="geometry">
            <mxPoint x="400" y="1620" as="sourcePoint" />
            <mxPoint x="500" y="1520" as="targetPoint" />
          </mxGeometry>
        </mxCell>
        <mxCell id="zz2BSMKjJ74yFO-jffu2-124" value="" style="edgeStyle=entityRelationEdgeStyle;fontSize=12;html=1;endArrow=ERmany;startArrow=ERmany;rounded=0;entryX=0;entryY=0.5;entryDx=0;entryDy=0;exitX=1;exitY=0.25;exitDx=0;exitDy=0;" edge="1" parent="1" source="zz2BSMKjJ74yFO-jffu2-112" target="zz2BSMKjJ74yFO-jffu2-104">
          <mxGeometry width="100" height="100" relative="1" as="geometry">
            <mxPoint x="670" y="1870" as="sourcePoint" />
            <mxPoint x="770" y="1770" as="targetPoint" />
          </mxGeometry>
        </mxCell>
      </root>
    </mxGraphModel>
  </diagram>
</mxfile>
